<?xml version="1.0" encoding="UTF-8"?>
<svg id="Layer_1" data-name="Layer 1" xmlns="http://www.w3.org/2000/svg" version="1.1" xmlns:xlink="http://www.w3.org/1999/xlink" viewBox="0 0 320 240">
  <defs>
    <style>
      .cls-1 {
        fill: none;
        stroke: #000;
        stroke-width: 2px;
      }

      .cls-1, .cls-2 {
        stroke-miterlimit: 10;
      }

      .cls-3 {
        fill: url(#linear-gradient);
        stroke-width: 0px;
      }

      .cls-2 {
        fill: #fbb03b;
        stroke: #fff;
      }
    </style>
    <linearGradient id="linear-gradient" x1="161" y1="98.5" x2="159.9" y2="147" gradientUnits="userSpaceOnUse">
      <stop offset="0" stop-color="#27ad2e"/>
      <stop offset=".8" stop-color="#056205"/>
    </linearGradient>
  </defs>
  <g>
    <g>
      <path class="cls-3" d="M80.3,113.6v6.7h-16.5v12.3h-8.3v-31.1h24.9v6.7h-16.6v5.5h16.5Z"/>
      <path class="cls-3" d="M109.7,125.3v7.2h-25.6v-31.1h8.3v23.9h17.2Z"/>
      <path class="cls-3" d="M111.5,121.1v-19.7h8.4v19.4c0,2,.5,3.5,1.5,4.2,1,.8,2.6,1.2,4.8,1.2s3.8-.4,4.8-1.2c1-.8,1.5-2.2,1.5-4.2v-19.4h8.3v19.7c0,4.1-1.2,7.1-3.6,9.1-2.4,2-6.1,3-11.1,3s-8.7-1-11.1-3c-2.4-2-3.6-5-3.6-9.1Z"/>
      <path class="cls-3" d="M173.2,101.4v7.2h-10.9v23.9h-8.4v-23.9h-10.9v-7.2h30.1Z"/>
      <path class="cls-3" d="M205,101.4v7.2h-10.9v23.9h-8.4v-23.9h-10.9v-7.2h30.1Z"/>
      <path class="cls-3" d="M232.8,125.8v6.7h-25.3v-31.1h25.3v6.7h-16.9v5.5h16.7v6.7h-16.7v5.6h16.9Z"/>
      <path class="cls-3" d="M265.7,132.5h-10.1l-9.2-14.3h4.9c1.7,0,3-.4,3.9-1.2.9-.8,1.3-2.2,1.3-4.1s-.4-3-1.2-3.7c-.8-.7-2.1-1.1-4-1.1h-6.1v24.4h-8.3v-31.1h16.3c4.1,0,7.2.8,9,2.5s2.8,4.4,2.8,8.3-.6,4.8-1.8,6.5c-1.2,1.7-3.2,2.8-5.8,3.2l8.5,10.6Z"/>
    </g>
    <polyline class="cls-1" points="162.9 141.3 254 141.3 97.6 151.2 280.1 146.2"/>
  </g>
  <polyline class="cls-1" points="152.1 268.8 260.1 268.8 74.6 281 291 274.9"/>
  <circle class="cls-2" cx="-67.1" cy="255.1" r="13.7"/>
  <image width="512" height="512" transform="translate(-76.3 246.8) scale(0)" xlink:href="C:\Users\Jasurbek\Downloads\ux-design.png"/>
</svg>