<?xml version="1.0" encoding="UTF-8"?>
<svg id="Layer_1" data-name="Layer 1" xmlns="http://www.w3.org/2000/svg" version="1.1" xmlns:xlink="http://www.w3.org/1999/xlink" viewBox="0 0 320 240">
  <defs>
    <style>
      .cls-1 {
        fill: none;
        stroke: #000;
        stroke-width: 2px;
      }

      .cls-1, .cls-2 {
        stroke-miterlimit: 10;
      }

      .cls-3 {
        fill: url(#linear-gradient);
        stroke-width: 0px;
      }

      .cls-2 {
        fill: #fbb03b;
        stroke: #fff;
      }
    </style>
    <linearGradient id="linear-gradient" x1="160.4" y1="101" x2="159.4" y2="144" gradientUnits="userSpaceOnUse">
      <stop offset="0" stop-color="#27ad2e"/>
      <stop offset=".8" stop-color="#056205"/>
    </linearGradient>
  </defs>
  <g>
    <g>
      <path class="cls-3" d="M53.7,114.7v5.6h-13.7v10.2h-6.9v-25.9h20.8v5.6h-13.8v4.6h13.7Z"/>
      <path class="cls-3" d="M70.4,131c-2.5,0-4.6-.2-6.3-.6-1.7-.4-3.1-1.2-4.3-2.2-1.2-1-2-2.4-2.6-4.1-.5-1.7-.8-3.9-.8-6.5s.3-4.9.8-6.7,1.5-3.2,2.7-4.2c1.2-1,2.7-1.7,4.3-2.1,1.6-.4,3.7-.6,6.1-.6s4.5.2,6.1.6c1.6.4,3.1,1.1,4.3,2.1,1.2,1,2.1,2.4,2.7,4.2s.8,4,.8,6.7c0,5.1-1.1,8.6-3.2,10.6-2.2,1.9-5.7,2.9-10.7,2.9ZM70.4,125.2c1.9,0,3.3-.2,4.2-.5.9-.4,1.6-1.1,2.1-2.2.5-1.1.7-2.7.7-4.9s-.1-3.1-.3-4.1c-.2-1-.6-1.8-1.2-2.3-.6-.5-1.3-.9-2.1-1.1-.8-.2-1.9-.2-3.3-.2s-2.6,0-3.4.2c-.8.2-1.5.5-2.1,1.1-.6.5-1,1.3-1.2,2.3-.2,1-.3,2.4-.3,4.1s.1,3,.3,4c.2,1,.6,1.8,1.2,2.3.6.6,1.3.9,2.1,1.1.8.2,1.9.3,3.3.3Z"/>
      <path class="cls-3" d="M87.2,120.9v-16.4h7v16.1c0,1.7.4,2.9,1.3,3.5s2.2,1,4,1,3.2-.3,4-1c.8-.7,1.3-1.8,1.3-3.5v-16.1h6.9v16.4c0,3.4-1,5.9-3,7.6-2,1.7-5.1,2.5-9.2,2.5s-7.2-.8-9.2-2.5c-2-1.6-3-4.2-3-7.6Z"/>
      <path class="cls-3" d="M114.9,104.5h5.3l13.2,15.5v-15.5h6.6v25.9h-5.3l-13.3-15.2v15.2h-6.5v-25.9Z"/>
      <path class="cls-3" d="M143.5,130.4v-25.9h11.6c2.4,0,4.3.2,5.8.5,1.5.3,2.9,1,4,1.9,1.2.9,2,2.3,2.6,4,.5,1.7.8,3.9.8,6.6s-.3,4.6-.8,6.3c-.5,1.7-1.3,3-2.4,4-1.1,1-2.5,1.7-4.1,2.1-1.6.4-3.6.6-5.9.6h-11.6ZM154.1,124.9c1.4,0,2.5,0,3.3-.2.8-.2,1.5-.5,2.2-1,.6-.5,1.1-1.3,1.3-2.2s.4-2.2.4-3.8,0-2.5-.3-3.4c-.2-.9-.4-1.6-.8-2.2-.3-.5-.8-.9-1.4-1.2-.7-.3-1.3-.4-2-.5s-1.6-.1-2.7-.1h-3.6v14.8h3.6Z"/>
      <path class="cls-3" d="M168.6,130.4l11.1-25.9h6.1l11,25.9h-7.7l-1.4-3.8h-10.2l-1.4,3.8h-7.6ZM182.7,113l-3.4,9.1h6.8l-3.4-9.1Z"/>
      <path class="cls-3" d="M218.6,104.5v6h-9v19.9h-7v-19.9h-9v-6h25.1Z"/>
      <path class="cls-3" d="M227.6,104.5v25.9h-6.9v-25.9h6.9Z"/>
      <path class="cls-3" d="M244.8,131c-2.5,0-4.6-.2-6.3-.6-1.7-.4-3.1-1.2-4.3-2.2s-2-2.4-2.6-4.1-.8-3.9-.8-6.5.3-4.9.8-6.7c.6-1.8,1.5-3.2,2.7-4.2,1.2-1,2.7-1.7,4.3-2.1,1.6-.4,3.7-.6,6.1-.6s4.5.2,6.1.6c1.6.4,3.1,1.1,4.3,2.1,1.2,1,2.1,2.4,2.7,4.2.6,1.8.8,4,.8,6.7,0,5.1-1.1,8.6-3.2,10.6s-5.7,2.9-10.7,2.9ZM244.8,125.2c1.9,0,3.3-.2,4.2-.5s1.6-1.1,2.1-2.2c.5-1.1.7-2.7.7-4.9s-.1-3.1-.3-4.1-.6-1.8-1.2-2.3c-.6-.5-1.3-.9-2.1-1.1-.8-.2-1.9-.2-3.3-.2s-2.6,0-3.4.2c-.8.2-1.5.5-2.1,1.1-.6.5-1,1.3-1.2,2.3-.2,1-.3,2.4-.3,4.1s.1,3,.3,4c.2,1,.6,1.8,1.2,2.3.6.6,1.3.9,2.1,1.1.8.2,1.9.3,3.3.3Z"/>
      <path class="cls-3" d="M261.9,104.5h5.3l13.2,15.5v-15.5h6.6v25.9h-5.3l-13.3-15.2v15.2h-6.5v-25.9Z"/>
    </g>
    <polyline class="cls-1" points="168.6 139.9 271.4 139.9 94.9 151.4 300.9 145.6"/>
  </g>
  <circle class="cls-2" cx="-67.1" cy="255.1" r="13.7"/>
  <image width="512" height="512" transform="translate(-76.3 246.8) scale(0)" xlink:href="C:\Users\Jasurbek\Downloads\ux-design.png"/>
</svg>