<?xml version="1.0" encoding="UTF-8"?>
<svg id="Layer_1" data-name="Layer 1" xmlns="http://www.w3.org/2000/svg" version="1.1" xmlns:xlink="http://www.w3.org/1999/xlink" viewBox="0 0 320 240">
  <defs>
    <style>
      .cls-1 {
        fill: none;
        stroke: #000;
        stroke-width: 2px;
      }

      .cls-1, .cls-2 {
        stroke-miterlimit: 10;
      }

      .cls-3 {
        fill: url(#linear-gradient);
        stroke-width: 0px;
      }

      .cls-2 {
        fill: #fbb03b;
        stroke: #fff;
      }
    </style>
    <linearGradient id="linear-gradient" x1="160.7" y1="98.1" x2="159.7" y2="147.9" gradientUnits="userSpaceOnUse">
      <stop offset="0" stop-color="#27ad2e"/>
      <stop offset=".8" stop-color="#056205"/>
    </linearGradient>
  </defs>
  <g>
    <g>
      <path class="cls-3" d="M57.3,113.6v6.7h-16.5v12.3h-8.3v-31.1h24.9v6.7h-16.6v5.5h16.5Z"/>
      <path class="cls-3" d="M90.1,132.5h-10.1l-9.2-14.3h4.9c1.7,0,3-.4,3.9-1.2.9-.8,1.3-2.2,1.3-4.1s-.4-3-1.2-3.7c-.8-.7-2.1-1.1-4-1.1h-6.1v24.4h-8.3v-31.1h16.3c4.1,0,7.2.8,9,2.5s2.8,4.4,2.8,8.3-.6,4.8-1.8,6.5c-1.2,1.7-3.2,2.8-5.8,3.2l8.5,10.6Z"/>
      <path class="cls-3" d="M109.4,133.2c-3,0-5.5-.3-7.5-.8s-3.7-1.4-5.1-2.6c-1.4-1.2-2.4-2.9-3.1-5-.6-2.1-1-4.7-1-7.8s.3-5.9,1-8c.7-2.1,1.8-3.8,3.2-5,1.5-1.2,3.2-2,5.2-2.5,2-.5,4.4-.7,7.3-.7s5.4.2,7.3.7c2,.5,3.7,1.3,5.2,2.5,1.5,1.2,2.6,2.9,3.2,5,.7,2.1,1,4.8,1,8,0,6.1-1.3,10.4-3.9,12.7-2.6,2.3-6.9,3.5-12.9,3.5ZM109.4,126.2c2.3,0,4-.2,5.1-.7,1.1-.4,1.9-1.3,2.5-2.6.5-1.3.8-3.3.8-5.9s-.1-3.7-.4-4.9c-.3-1.2-.7-2.1-1.5-2.8-.7-.7-1.6-1.1-2.5-1.3-1-.2-2.3-.3-4-.3s-3.1,0-4,.3c-.9.2-1.8.6-2.5,1.3-.7.6-1.2,1.6-1.4,2.8-.3,1.2-.4,2.9-.4,4.9s.1,3.6.4,4.8c.3,1.2.7,2.1,1.4,2.8.7.7,1.5,1.1,2.5,1.3,1,.2,2.3.3,4,.3Z"/>
      <path class="cls-3" d="M130,101.4h6.4l15.9,18.7v-18.7h7.9v31.1h-6.4l-16-18.3v18.3h-7.8v-31.1Z"/>
      <path class="cls-3" d="M192.7,101.4v7.2h-10.9v23.9h-8.4v-23.9h-10.9v-7.2h30.1Z"/>
      <path class="cls-3" d="M220.5,125.8v6.7h-25.3v-31.1h25.3v6.7h-16.9v5.5h16.7v6.7h-16.7v5.6h16.9Z"/>
      <path class="cls-3" d="M224.4,101.4h6.4l15.9,18.7v-18.7h7.9v31.1h-6.4l-16-18.3v18.3h-7.8v-31.1Z"/>
      <path class="cls-3" d="M258.8,132.5v-31.1h13.9c2.8,0,5.1.2,7,.6,1.8.4,3.4,1.2,4.8,2.3,1.4,1.1,2.4,2.7,3.1,4.8s.9,4.7.9,7.9-.3,5.6-.9,7.6c-.6,2-1.6,3.6-2.9,4.8-1.3,1.2-3,2-4.9,2.5-1.9.5-4.3.7-7.1.7h-13.9ZM271.5,125.8c1.7,0,3,0,4-.3,1-.2,1.8-.6,2.6-1.2.8-.6,1.3-1.5,1.6-2.7.3-1.2.5-2.7.5-4.6s-.1-3-.3-4.1c-.2-1.1-.5-2-.9-2.6-.4-.6-1-1.1-1.7-1.4-.8-.3-1.6-.5-2.4-.6s-1.9-.1-3.3-.1h-4.4v17.8h4.4Z"/>
    </g>
    <polyline class="cls-1" points="151.1 141.3 259.1 141.3 73.7 153.4 290.1 147.3"/>
  </g>
  <circle class="cls-2" cx="-67.1" cy="255.1" r="13.7"/>
  <image width="512" height="512" transform="translate(-76.3 246.8) scale(0)" xlink:href="C:\Users\Jasurbek\Downloads\ux-design.png"/>
</svg>