<?xml version="1.0" encoding="UTF-8"?>
<svg id="Layer_1" data-name="Layer 1" xmlns="http://www.w3.org/2000/svg" version="1.1" xmlns:xlink="http://www.w3.org/1999/xlink" viewBox="0 0 320 240">
  <defs>
    <style>
      .cls-1 {
        fill: none;
        stroke: #000;
        stroke-width: 2px;
      }

      .cls-1, .cls-2 {
        stroke-miterlimit: 10;
      }

      .cls-3 {
        fill: url(#linear-gradient);
        stroke-width: 0px;
      }

      .cls-2 {
        fill: #fbb03b;
        stroke: #fff;
      }
    </style>
    <linearGradient id="linear-gradient" x1="161.4" y1="70.4" x2="158.8" y2="192.1" gradientUnits="userSpaceOnUse">
      <stop offset="0" stop-color="#27ad2e"/>
      <stop offset=".8" stop-color="#056205"/>
    </linearGradient>
  </defs>
  <g>
    <g>
      <path class="cls-3" d="M90.1,93.9v-5.5h16.3v4.1c0,4.8-1.2,8.3-3.7,10.4-2.5,2.1-6.5,3.2-12.2,3.2s-5.3-.3-7.3-.8c-2-.5-3.6-1.4-5-2.6-1.4-1.2-2.4-2.9-3-5-.6-2.1-.9-4.7-.9-7.8s.3-5.9,1-8c.6-2.1,1.7-3.8,3.1-5,1.4-1.2,3.1-2,5-2.5,1.9-.5,4.3-.7,7.1-.7,5.2,0,9.1.9,11.5,2.8,2.4,1.8,3.8,4.8,4.2,9h-8.3c-.2-1.9-.8-3.1-1.8-3.8-1-.6-2.9-1-5.5-1s-2.8,0-3.7.3c-.9.2-1.7.6-2.3,1.3-.7.6-1.1,1.6-1.4,2.8-.3,1.2-.4,2.9-.4,4.9s.1,3.6.4,4.8c.3,1.2.7,2.1,1.4,2.8.7.7,1.5,1.1,2.4,1.3.9.2,2.2.3,3.8.3,2.7,0,4.6-.3,5.8-1,1.2-.7,1.7-1.9,1.7-3.7v-.5h-8.2Z"/>
      <path class="cls-3" d="M139.2,105.5h-10.1l-9.2-14.3h4.9c1.7,0,3-.4,3.9-1.2.9-.8,1.3-2.2,1.3-4.1s-.4-3-1.2-3.7c-.8-.7-2.1-1.1-4-1.1h-6.1v24.4h-8.3v-31.1h16.3c4.1,0,7.2.8,9,2.5s2.8,4.4,2.8,8.3-.6,4.8-1.8,6.5c-1.2,1.7-3.2,2.8-5.8,3.2l8.5,10.6Z"/>
      <path class="cls-3" d="M140.1,105.5l13.3-31.1h7.4l13.3,31.1h-9.3l-1.7-4.5h-12.2l-1.7,4.5h-9.1ZM157.1,84.5l-4.1,11h8.2l-4.1-11Z"/>
      <path class="cls-3" d="M201,86.5v6.7h-16.5v12.3h-8.3v-31.1h24.9v6.7h-16.6v5.5h16.5Z"/>
      <path class="cls-3" d="M213.2,74.3v31.1h-8.3v-31.1h8.3Z"/>
      <path class="cls-3" d="M247.3,105.5h-10l-8.2-13.1h-3.2v13.1h-8.3v-31.1h8.3v15.8l11.1-15.8h9.3l-10.9,14.3,11.9,16.8Z"/>
      <path class="cls-3" d="M74.8,159.6v-31.1h13.9c2.8,0,5.1.2,7,.6,1.8.4,3.4,1.2,4.8,2.3,1.4,1.1,2.4,2.7,3.1,4.8.6,2.1.9,4.7.9,7.9s-.3,5.6-.9,7.6c-.6,2-1.6,3.6-2.9,4.8-1.3,1.2-3,2-4.9,2.5-1.9.5-4.3.7-7.1.7h-13.9ZM87.6,152.9c1.7,0,3,0,4-.3,1-.2,1.8-.6,2.6-1.2.8-.6,1.3-1.5,1.6-2.7.3-1.2.5-2.7.5-4.6s-.1-3-.3-4.1c-.2-1.1-.5-2-.9-2.6s-1-1.1-1.7-1.4c-.8-.3-1.6-.5-2.4-.6-.8,0-1.9-.1-3.3-.1h-4.4v17.8h4.4Z"/>
      <path class="cls-3" d="M116.7,128.5v31.1h-8.3v-31.1h8.3Z"/>
      <path class="cls-3" d="M147.5,152.6v7h-27.3v-5.5l16-18.6h-15.2v-7h26.1v5.5l-15.7,18.6h16.1Z"/>
      <path class="cls-3" d="M148.8,159.6l13.3-31.1h7.4l13.3,31.1h-9.3l-1.7-4.5h-12.2l-1.7,4.5h-9.1ZM165.8,138.6l-4.1,11h8.2l-4.1-11Z"/>
      <path class="cls-3" d="M177.2,128.5h9.5l8.1,14.1,7.9-14.1h9.3l-13.1,21.4v9.7h-8.4v-9.5l-13.3-21.6Z"/>
      <path class="cls-3" d="M214.1,128.5h6.4l15.9,18.7v-18.7h7.9v31.1h-6.4l-16-18.3v18.3h-7.8v-31.1Z"/>
    </g>
    <polyline class="cls-1" points="156.2 167.4 264.2 167.4 78.7 179.5 295.1 173.4"/>
  </g>
  <circle class="cls-2" cx="-67.1" cy="255.1" r="13.7"/>
  <image width="512" height="512" transform="translate(-76.3 246.8) scale(0)" xlink:href="C:\Users\Jasurbek\Downloads\ux-design.png"/>
</svg>