<?xml version="1.0" encoding="UTF-8"?>
<svg id="Layer_1" data-name="Layer 1" xmlns="http://www.w3.org/2000/svg" version="1.1" xmlns:xlink="http://www.w3.org/1999/xlink" viewBox="0 0 320 240">
  <defs>
    <style>
      .cls-1 {
        fill: none;
        stroke: #000;
        stroke-width: 2px;
      }

      .cls-1, .cls-2 {
        stroke-miterlimit: 10;
      }

      .cls-3 {
        fill: url(#linear-gradient);
        stroke-width: 0px;
      }

      .cls-2 {
        fill: #fbb03b;
        stroke: #fff;
      }
    </style>
    <linearGradient id="linear-gradient" x1="160.4" y1="97.9" x2="159.3" y2="147.7" gradientUnits="userSpaceOnUse">
      <stop offset="0" stop-color="#27ad2e"/>
      <stop offset=".8" stop-color="#056205"/>
    </linearGradient>
  </defs>
  <g>
    <g>
      <path class="cls-3" d="M47.5,101.4v31.1h-8.3v-31.1h8.3Z"/>
      <path class="cls-3" d="M51.8,101.4h6.4l15.9,18.7v-18.7h7.9v31.1h-6.4l-16-18.3v18.3h-7.8v-31.1Z"/>
      <path class="cls-3" d="M101.4,121v-5.5h16.3v4.1c0,4.8-1.2,8.3-3.7,10.4-2.5,2.1-6.5,3.2-12.2,3.2s-5.3-.3-7.3-.8c-2-.5-3.6-1.4-5-2.6-1.4-1.2-2.4-2.9-3-5-.6-2.1-.9-4.7-.9-7.8s.3-5.9,1-8c.6-2.1,1.7-3.8,3.1-5,1.4-1.2,3.1-2,5-2.5,1.9-.5,4.3-.7,7.1-.7,5.2,0,9.1.9,11.5,2.8,2.4,1.8,3.8,4.8,4.2,9h-8.3c-.2-1.9-.8-3.1-1.8-3.8-1-.6-2.9-1-5.5-1s-2.8,0-3.7.3c-.9.2-1.7.6-2.3,1.3-.7.6-1.1,1.6-1.4,2.8-.3,1.2-.4,2.9-.4,4.9s.1,3.6.4,4.8c.3,1.2.7,2.1,1.4,2.8.7.7,1.5,1.1,2.4,1.3.9.2,2.2.3,3.8.3,2.7,0,4.6-.3,5.8-1,1.2-.7,1.7-1.9,1.7-3.7v-.5h-8.2Z"/>
      <path class="cls-3" d="M147.1,125.3v7.2h-25.6v-31.1h8.3v23.9h17.2Z"/>
      <path class="cls-3" d="M158.1,101.4v31.1h-8.3v-31.1h8.3Z"/>
      <path class="cls-3" d="M188.9,125.5v7h-27.3v-5.5l16-18.6h-15.2v-7h26.1v5.5l-15.7,18.6h16.1Z"/>
      <path class="cls-3" d="M229.1,101.4v7.2h-10.9v23.9h-8.4v-23.9h-10.9v-7.2h30.1Z"/>
      <path class="cls-3" d="M240,101.4v31.1h-8.3v-31.1h8.3Z"/>
      <path class="cls-3" d="M269.8,125.3v7.2h-25.6v-31.1h8.3v23.9h17.2Z"/>
      <path class="cls-3" d="M280.8,101.4v31.1h-8.3v-31.1h8.3Z"/>
    </g>
    <polyline class="cls-1" points="162.9 141.3 254 141.3 97.6 151.2 280.1 146.2"/>
  </g>
  <polyline class="cls-1" points="152.1 268.8 260.1 268.8 74.6 281 291 274.9"/>
  <circle class="cls-2" cx="-67.1" cy="255.1" r="13.7"/>
  <image width="512" height="512" transform="translate(-76.3 246.8) scale(0)" xlink:href="C:\Users\Jasurbek\Downloads\ux-design.png"/>
</svg>