<?xml version="1.0" encoding="utf-8"?>
<svg version="1.1" id="Layer_1" xmlns="http://www.w3.org/2000/svg" xmlns:xlink="http://www.w3.org/1999/xlink" x="0px" y="0px"
	 viewBox="0 0 2000 2000" style="enable-background:new 0 0 2000 2000;" xml:space="preserve">
<style type="text/css">
	.st0{fill:#fff;}
	.st1{fill:#028928;}
</style>
<g>
	<path class="st0" d="M20.6,1377.4V916.7c0,0,0-137.8,135.3-137.8c134.1,0,279.4,0,279.4,0V913H159v464.4H20.6z"/>
	<path class="st0" d="M880.5,1377.4v-132.6H638.3V908.6h242.1V770.8H638.3V622.6H495.8v626.8c0,0,0,127.9,139.7,127.9h245V1377.4z"
		/>
	<path class="st0" d="M945.6,1377.4V778.9h777.6c0,0,116.4,0,116.4,130.7c0,119.2,0,467.8,0,467.8h-131.3V913.3h-242.1v464.1h-143.4
		V913.3h-237.5v464.1H945.6z"/>
	<circle class="st0" cx="1909.8" cy="712.2" r="69.5"/>
	<path class="st1" d="M1811,719.2h-178.6c-11.4,0-20.6-9.2-20.6-20.6v-35.4c0-11.4,9.2-20.6,20.6-20.6H1811
		c11.4,0,20.6,9.2,20.6,20.6v35.4C1831.6,710,1822.4,719.2,1811,719.2z"/>
	<path class="st1" d="M1979.4,808.3v178.6c0,11.4-9.2,20.6-20.6,20.6h-35.4c-11.4,0-20.6-9.2-20.6-20.6V808.3
		c0-11.4,9.2-20.6,20.6-20.6h35.4C1970.1,787.8,1979.4,797,1979.4,808.3z"/>
</g>
</svg>
