<?xml version="1.0" encoding="UTF-8"?>
<svg id="Layer_1" data-name="Layer 1" xmlns="http://www.w3.org/2000/svg" version="1.1" xmlns:xlink="http://www.w3.org/1999/xlink" viewBox="0 0 320 240">
  <defs>
    <style>
      .cls-1 {
        fill: none;
        stroke: #000;
        stroke-width: 2px;
      }

      .cls-1, .cls-2 {
        stroke-miterlimit: 10;
      }

      .cls-3 {
        fill: url(#linear-gradient);
        stroke-width: 0px;
      }

      .cls-2 {
        fill: #fbb03b;
        stroke: #fff;
      }
    </style>
    <linearGradient id="linear-gradient" x1="160.5" y1="70.2" x2="157.8" y2="192.1" gradientUnits="userSpaceOnUse">
      <stop offset="0" stop-color="#27ad2e"/>
      <stop offset=".8" stop-color="#056205"/>
    </linearGradient>
  </defs>
  <g>
    <g>
      <path class="cls-3" d="M84.4,97.6l-9.7-10.6v18.5h-8.3v-31.1h6.5l11.6,13.4,11.5-13.4h6.4v31.1h-8.3v-18.4l-9.7,10.6Z"/>
      <path class="cls-3" d="M123,106.1c-3,0-5.5-.3-7.5-.8s-3.7-1.4-5.1-2.6c-1.4-1.2-2.4-2.9-3.1-5-.6-2.1-1-4.7-1-7.8s.3-5.9,1-8c.7-2.1,1.8-3.8,3.2-5,1.5-1.2,3.2-2,5.2-2.5,2-.5,4.4-.7,7.3-.7s5.4.2,7.3.7c2,.5,3.7,1.3,5.2,2.5,1.5,1.2,2.6,2.9,3.2,5,.7,2.1,1,4.8,1,8,0,6.1-1.3,10.4-3.9,12.7-2.6,2.3-6.9,3.5-12.9,3.5ZM123,99.1c2.3,0,4-.2,5.1-.7,1.1-.4,1.9-1.3,2.5-2.6.5-1.3.8-3.3.8-5.9s-.1-3.7-.4-4.9c-.3-1.2-.7-2.1-1.5-2.8-.7-.7-1.6-1.1-2.5-1.3-1-.2-2.3-.3-4-.3s-3.1,0-4,.3c-.9.2-1.8.6-2.5,1.3-.7.6-1.2,1.6-1.4,2.8-.3,1.2-.4,2.9-.4,4.9s.1,3.6.4,4.8c.3,1.2.7,2.1,1.4,2.8.7.7,1.5,1.1,2.5,1.3,1,.2,2.3.3,4,.3Z"/>
      <path class="cls-3" d="M171.5,74.3v7.2h-10.9v23.9h-8.4v-23.9h-10.9v-7.2h30.1Z"/>
      <path class="cls-3" d="M182.4,74.3v31.1h-8.3v-31.1h8.3Z"/>
      <path class="cls-3" d="M203,106.1c-3,0-5.5-.3-7.5-.8-2-.5-3.7-1.4-5.1-2.6-1.4-1.2-2.4-2.9-3.1-5-.6-2.1-1-4.7-1-7.8s.3-5.9,1-8c.7-2.1,1.8-3.8,3.2-5,1.5-1.2,3.2-2,5.2-2.5,2-.5,4.4-.7,7.3-.7s5.4.2,7.3.7c2,.5,3.7,1.3,5.2,2.5,1.5,1.2,2.6,2.9,3.2,5,.7,2.1,1,4.8,1,8,0,6.1-1.3,10.4-3.9,12.7-2.6,2.3-6.9,3.5-12.9,3.5ZM203,99.1c2.3,0,4-.2,5.1-.7,1.1-.4,1.9-1.3,2.5-2.6.5-1.3.8-3.3.8-5.9s-.1-3.7-.4-4.9c-.3-1.2-.7-2.1-1.5-2.8-.7-.7-1.6-1.1-2.5-1.3-1-.2-2.3-.3-4-.3s-3.1,0-4,.3c-.9.2-1.8.6-2.5,1.3-.7.6-1.2,1.6-1.4,2.8-.3,1.2-.4,2.9-.4,4.9s.1,3.6.4,4.8c.3,1.2.7,2.1,1.4,2.8.7.7,1.5,1.1,2.5,1.3,1,.2,2.3.3,4,.3Z"/>
      <path class="cls-3" d="M223.5,74.3h6.4l15.9,18.7v-18.7h7.9v31.1h-6.4l-16-18.3v18.3h-7.8v-31.1Z"/>
      <path class="cls-3" d="M75.3,159.6v-31.1h13.9c2.8,0,5.1.2,7,.6,1.8.4,3.4,1.2,4.8,2.3,1.4,1.1,2.4,2.7,3.1,4.8.6,2.1.9,4.7.9,7.9s-.3,5.6-.9,7.6c-.6,2-1.6,3.6-2.9,4.8-1.3,1.2-3,2-4.9,2.5-1.9.5-4.3.7-7.1.7h-13.9ZM88,152.9c1.7,0,3,0,4-.3,1-.2,1.8-.6,2.6-1.2.8-.6,1.3-1.5,1.6-2.7.3-1.2.5-2.7.5-4.6s-.1-3-.3-4.1c-.2-1.1-.5-2-.9-2.6s-1-1.1-1.7-1.4c-.8-.3-1.6-.5-2.4-.6-.8,0-1.9-.1-3.3-.1h-4.4v17.8h4.4Z"/>
      <path class="cls-3" d="M117.2,128.5v31.1h-8.3v-31.1h8.3Z"/>
      <path class="cls-3" d="M147.9,152.6v7h-27.3v-5.5l16-18.6h-15.2v-7h26.1v5.5l-15.7,18.6h16.1Z"/>
      <path class="cls-3" d="M149.2,159.6l13.3-31.1h7.4l13.3,31.1h-9.3l-1.7-4.5h-12.2l-1.7,4.5h-9.1ZM166.2,138.6l-4.1,11h8.2l-4.1-11Z"/>
      <path class="cls-3" d="M177.7,128.5h9.5l8.1,14.1,7.9-14.1h9.3l-13.1,21.4v9.7h-8.4v-9.5l-13.3-21.6Z"/>
      <path class="cls-3" d="M214.6,128.5h6.4l15.9,18.7v-18.7h7.9v31.1h-6.4l-16-18.3v18.3h-7.8v-31.1Z"/>
    </g>
    <polyline class="cls-1" points="151.1 167.4 259.1 167.4 73.7 179.5 290.1 173.4"/>
  </g>
  <circle class="cls-2" cx="-67.1" cy="255.1" r="13.7"/>
  <image width="512" height="512" transform="translate(-76.3 246.8) scale(0)" xlink:href="C:\Users\Jasurbek\Downloads\ux-design.png"/>
</svg>