<?xml version="1.0" encoding="UTF-8"?>
<svg id="Layer_1" data-name="Layer 1" xmlns="http://www.w3.org/2000/svg" version="1.1" xmlns:xlink="http://www.w3.org/1999/xlink" viewBox="0 0 320 240">
  <defs>
    <style>
      .cls-1 {
        fill: none;
        stroke: #000;
        stroke-width: 2px;
      }

      .cls-1, .cls-2 {
        stroke-miterlimit: 10;
      }

      .cls-3 {
        fill: url(#linear-gradient);
        stroke-width: 0px;
      }

      .cls-2 {
        fill: #fbb03b;
        stroke: #fff;
      }
    </style>
    <linearGradient id="linear-gradient" x1="160.4" y1="98.4" x2="159.4" y2="146.9" gradientUnits="userSpaceOnUse">
      <stop offset="0" stop-color="#27ad2e"/>
      <stop offset=".8" stop-color="#056205"/>
    </linearGradient>
  </defs>
  <g>
    <g>
      <path class="cls-3" d="M89.4,113.2c0,4.3-.9,7.5-2.7,9.5-1.8,2-4.5,3.1-8.2,3.1h-9.5v6.8h-8.3v-31.1h17.7c3.9,0,6.7.9,8.4,2.7,1.7,1.8,2.6,4.8,2.6,9ZM76.3,108.1h-7.3v11h7.4c1.6,0,2.7-.4,3.5-1.3.8-.9,1.1-2.3,1.1-4.4s-.3-3.5-1-4.2c-.7-.7-1.9-1.1-3.7-1.1Z"/>
      <path class="cls-3" d="M89.3,101.4h9.5l8.1,14.1,7.9-14.1h9.3l-13.1,21.4v9.7h-8.4v-9.5l-13.3-21.6Z"/>
      <path class="cls-3" d="M155.5,101.4v7.2h-10.9v23.9h-8.4v-23.9h-10.9v-7.2h30.1Z"/>
      <path class="cls-3" d="M166.4,101.4v12.2h13.4v-12.2h8.3v31.1h-8.3v-11.7h-13.4v11.7h-8.3v-31.1h8.3Z"/>
      <path class="cls-3" d="M208.6,133.2c-3,0-5.5-.3-7.5-.8-2-.5-3.7-1.4-5.1-2.6s-2.4-2.9-3.1-5c-.6-2.1-1-4.7-1-7.8s.3-5.9,1-8c.7-2.1,1.8-3.8,3.2-5,1.5-1.2,3.2-2,5.2-2.5,2-.5,4.4-.7,7.3-.7s5.4.2,7.3.7c2,.5,3.7,1.3,5.2,2.5,1.5,1.2,2.6,2.9,3.2,5,.7,2.1,1,4.8,1,8,0,6.1-1.3,10.4-3.9,12.7-2.6,2.3-6.9,3.5-12.9,3.5ZM208.6,126.2c2.3,0,4-.2,5.1-.7,1.1-.4,1.9-1.3,2.5-2.6.5-1.3.8-3.3.8-5.9s-.1-3.7-.4-4.9c-.3-1.2-.7-2.1-1.5-2.8-.7-.7-1.6-1.1-2.5-1.3-1-.2-2.3-.3-4-.3s-3.1,0-4,.3c-.9.2-1.8.6-2.5,1.3-.7.6-1.2,1.6-1.4,2.8-.3,1.2-.4,2.9-.4,4.9s.1,3.6.4,4.8c.3,1.2.7,2.1,1.4,2.8.7.7,1.5,1.1,2.5,1.3,1,.2,2.3.3,4,.3Z"/>
      <path class="cls-3" d="M229.2,101.4h6.4l15.9,18.7v-18.7h7.9v31.1h-6.4l-16-18.3v18.3h-7.8v-31.1Z"/>
    </g>
    <polyline class="cls-1" points="162.9 141.3 254 141.3 97.6 151.2 280.1 146.2"/>
  </g>
  <polyline class="cls-1" points="152.1 268.8 260.1 268.8 74.6 281 291 274.9"/>
  <circle class="cls-2" cx="-67.1" cy="255.1" r="13.7"/>
  <image width="512" height="512" transform="translate(-76.3 246.8) scale(0)" xlink:href="C:\Users\Jasurbek\Downloads\ux-design.png"/>
</svg>