<?xml version="1.0" encoding="UTF-8"?>
<svg id="Layer_1" data-name="Layer 1" xmlns="http://www.w3.org/2000/svg" version="1.1" xmlns:xlink="http://www.w3.org/1999/xlink" viewBox="0 0 320 240">
  <defs>
    <style>
      .cls-1 {
        fill: none;
        stroke: #000;
        stroke-width: 2px;
      }

      .cls-1, .cls-2 {
        stroke-miterlimit: 10;
      }

      .cls-3 {
        fill: url(#linear-gradient);
        stroke-width: 0px;
      }

      .cls-2 {
        fill: #fbb03b;
        stroke: #fff;
      }
    </style>
    <linearGradient id="linear-gradient" x1="161" y1="65.9" x2="158.3" y2="188.7" gradientUnits="userSpaceOnUse">
      <stop offset="0" stop-color="#27ad2e"/>
      <stop offset=".8" stop-color="#056205"/>
    </linearGradient>
  </defs>
  <g>
    <g>
      <path class="cls-3" d="M86.5,101.6h-10.1l-9.2-14.3h4.9c1.7,0,3-.4,3.9-1.2.9-.8,1.3-2.2,1.3-4.1s-.4-3-1.2-3.7c-.8-.7-2.1-1.1-4-1.1h-6.1v24.4h-8.3v-31.1h16.3c4.1,0,7.2.8,9,2.5s2.8,4.4,2.8,8.3-.6,4.8-1.8,6.5c-1.2,1.7-3.2,2.8-5.8,3.2l8.5,10.6Z"/>
      <path class="cls-3" d="M105.8,102.3c-3,0-5.5-.3-7.5-.8s-3.7-1.4-5.1-2.6c-1.4-1.2-2.4-2.9-3.1-5-.6-2.1-1-4.7-1-7.8s.3-5.9,1-8c.7-2.1,1.8-3.8,3.2-5,1.5-1.2,3.2-2,5.2-2.5,2-.5,4.4-.7,7.3-.7s5.4.2,7.3.7c2,.5,3.7,1.3,5.2,2.5,1.5,1.2,2.6,2.9,3.2,5,.7,2.1,1,4.8,1,8,0,6.1-1.3,10.4-3.9,12.7-2.6,2.3-6.9,3.5-12.9,3.5ZM105.8,95.3c2.3,0,4-.2,5.1-.7,1.1-.4,1.9-1.3,2.5-2.6.5-1.3.8-3.3.8-5.9s-.1-3.7-.4-4.9c-.3-1.2-.7-2.1-1.5-2.8-.7-.7-1.6-1.1-2.5-1.3-1-.2-2.3-.3-4-.3s-3.1,0-4,.3c-.9.2-1.8.6-2.5,1.3-.7.6-1.2,1.6-1.4,2.8-.3,1.2-.4,2.9-.4,4.9s.1,3.6.4,4.8c.3,1.2.7,2.1,1.4,2.8.7.7,1.5,1.1,2.5,1.3,1,.2,2.3.3,4,.3Z"/>
      <path class="cls-3" d="M148.4,85.3v.4c4.2.7,6.3,3.1,6.3,7s-.8,5.2-2.5,6.7c-1.7,1.4-4.3,2.1-7.8,2.1h-18.1v-31.1h17.5c3.6,0,6.1.7,7.7,2,1.6,1.3,2.3,3.5,2.3,6.5s-1.8,5.5-5.5,6.4ZM141.8,77.1h-7.1v6h7.2c1.3,0,2.2-.2,2.9-.7.6-.5.9-1.3.9-2.4s-.3-1.9-.8-2.3c-.6-.4-1.6-.6-3-.6ZM142.3,88.6h-7.6v6.3h7.7c1.4,0,2.4-.2,3.1-.7.7-.5,1-1.3,1-2.5s-.3-2-.9-2.4c-.6-.4-1.7-.7-3.3-.7Z"/>
      <path class="cls-3" d="M173.9,102.3c-3,0-5.5-.3-7.5-.8-2-.5-3.7-1.4-5.1-2.6-1.4-1.2-2.4-2.9-3.1-5-.6-2.1-1-4.7-1-7.8s.3-5.9,1-8c.7-2.1,1.8-3.8,3.2-5,1.5-1.2,3.2-2,5.2-2.5,2-.5,4.4-.7,7.3-.7s5.4.2,7.3.7c2,.5,3.7,1.3,5.2,2.5,1.5,1.2,2.6,2.9,3.2,5,.7,2.1,1,4.8,1,8,0,6.1-1.3,10.4-3.9,12.7-2.6,2.3-6.9,3.5-12.9,3.5ZM173.9,95.3c2.3,0,4-.2,5.1-.7,1.1-.4,1.9-1.3,2.5-2.6.5-1.3.8-3.3.8-5.9s-.1-3.7-.4-4.9c-.3-1.2-.7-2.1-1.5-2.8-.7-.7-1.6-1.1-2.5-1.3-1-.2-2.3-.3-4-.3s-3.1,0-4,.3c-.9.2-1.8.6-2.5,1.3-.7.6-1.2,1.6-1.4,2.8-.3,1.2-.4,2.9-.4,4.9s.1,3.6.4,4.8c.3,1.2.7,2.1,1.4,2.8.7.7,1.5,1.1,2.5,1.3,1,.2,2.3.3,4,.3Z"/>
      <path class="cls-3" d="M222.4,70.5v7.2h-10.9v23.9h-8.4v-23.9h-10.9v-7.2h30.1Z"/>
      <path class="cls-3" d="M240.8,102.3c-3,0-5.5-.3-7.5-.8-2-.5-3.7-1.4-5.1-2.6-1.4-1.2-2.4-2.9-3.1-5-.6-2.1-1-4.7-1-7.8s.3-5.9,1-8c.7-2.1,1.8-3.8,3.2-5,1.5-1.2,3.2-2,5.2-2.5,2-.5,4.4-.7,7.3-.7s5.4.2,7.3.7c2,.5,3.7,1.3,5.2,2.5,1.5,1.2,2.6,2.9,3.2,5,.7,2.1,1,4.8,1,8,0,6.1-1.3,10.4-3.9,12.7-2.6,2.3-6.9,3.5-12.9,3.5ZM240.8,95.3c2.3,0,4-.2,5.1-.7,1.1-.4,1.9-1.3,2.5-2.6.5-1.3.8-3.3.8-5.9s-.1-3.7-.4-4.9c-.3-1.2-.7-2.1-1.5-2.8-.7-.7-1.6-1.1-2.5-1.3-1-.2-2.3-.3-4-.3s-3.1,0-4,.3c-.9.2-1.8.6-2.5,1.3-.7.6-1.2,1.6-1.4,2.8-.3,1.2-.4,2.9-.4,4.9s.1,3.6.4,4.8c.3,1.2.7,2.1,1.4,2.8.7.7,1.5,1.1,2.5,1.3,1,.2,2.3.3,4,.3Z"/>
      <path class="cls-3" d="M85.9,124.6v7.2h-10.9v23.9h-8.4v-23.9h-10.9v-7.2h30.1Z"/>
      <path class="cls-3" d="M113.7,149v6.7h-25.3v-31.1h25.3v6.7h-16.9v5.5h16.7v6.7h-16.7v5.6h16.9Z"/>
      <path class="cls-3" d="M138.8,155.7l-6.5-10.3-6.4,10.3h-10.2l11-15.8-10.3-15.3h10.1l6,9.9,6.2-9.9h9.7l-10.2,15.3,11,15.8h-10.4Z"/>
      <path class="cls-3" d="M151.3,124.6h6.4l15.9,18.7v-18.7h7.9v31.1h-6.4l-16-18.3v18.3h-7.8v-31.1Z"/>
      <path class="cls-3" d="M194.1,124.6v31.1h-8.3v-31.1h8.3Z"/>
      <path class="cls-3" d="M228.1,155.7h-10l-8.2-13.1h-3.2v13.1h-8.3v-31.1h8.3v15.8l11.1-15.8h9.3l-10.9,14.3,11.9,16.8Z"/>
      <path class="cls-3" d="M229,155.7l13.3-31.1h7.4l13.3,31.1h-9.3l-1.7-4.5h-12.2l-1.7,4.5h-9.1ZM246,134.8l-4.1,11h8.2l-4.1-11Z"/>
    </g>
    <polyline class="cls-1" points="157.3 163.4 265.3 163.4 79.8 175.6 296.2 169.5"/>
  </g>
  <circle class="cls-2" cx="-67.1" cy="255.1" r="13.7"/>
  <image width="512" height="512" transform="translate(-76.3 246.8) scale(0)" xlink:href="C:\Users\Jasurbek\Downloads\ux-design.png"/>
</svg>