<?xml version="1.0" encoding="UTF-8"?>
<svg id="Layer_1" data-name="Layer 1" xmlns="http://www.w3.org/2000/svg" version="1.1" xmlns:xlink="http://www.w3.org/1999/xlink" viewBox="0 0 320 240">
  <defs>
    <style>
      .cls-1 {
        fill: none;
        stroke: #000;
        stroke-width: 2px;
      }

      .cls-1, .cls-2 {
        stroke-miterlimit: 10;
      }

      .cls-3 {
        fill: url(#linear-gradient);
        stroke-width: 0px;
      }

      .cls-2 {
        fill: #fbb03b;
        stroke: #fff;
      }
    </style>
    <linearGradient id="linear-gradient" x1="160.4" y1="98.5" x2="159.3" y2="146.7" gradientUnits="userSpaceOnUse">
      <stop offset="0" stop-color="#27ad2e"/>
      <stop offset=".8" stop-color="#056205"/>
    </linearGradient>
  </defs>
  <g>
    <g>
      <path class="cls-3" d="M95.5,132.5h-10.1l-9.2-14.3h4.9c1.7,0,3-.4,3.9-1.2.9-.8,1.3-2.2,1.3-4.1s-.4-3-1.2-3.7c-.8-.7-2.1-1.1-4-1.1h-6.1v24.4h-8.3v-31.1h16.3c4.1,0,7.2.8,9,2.5s2.8,4.4,2.8,8.3-.6,4.8-1.8,6.5c-1.2,1.7-3.2,2.8-5.8,3.2l8.5,10.6Z"/>
      <path class="cls-3" d="M98.2,121.1v-19.7h8.4v19.4c0,2,.5,3.5,1.5,4.2,1,.8,2.6,1.2,4.8,1.2s3.8-.4,4.8-1.2c1-.8,1.5-2.2,1.5-4.2v-19.4h8.3v19.7c0,4.1-1.2,7.1-3.6,9.1-2.4,2-6.1,3-11.1,3s-8.7-1-11.1-3c-2.4-2-3.6-5-3.6-9.1Z"/>
      <path class="cls-3" d="M145.8,133.2c-5.6,0-9.6-.9-11.9-2.6s-3.4-4.7-3.4-8.8h8.7c0,1.9.6,3.2,1.5,3.9.9.7,2.6,1.1,5,1.1s4.3-.2,5.2-.7c.9-.5,1.4-1.3,1.4-2.4s-.3-1.5-.9-1.8c-.6-.3-1.5-.6-2.8-.9l-9.3-2c-2.9-.6-5-1.6-6.3-2.9-1.3-1.3-1.9-3.3-1.9-6,0-6.2,4.8-9.3,14.5-9.3s8.9.8,11.1,2.5c2.2,1.6,3.4,4.5,3.5,8.5h-8.2c-.1-1.8-.6-3-1.5-3.7-.9-.6-2.5-.9-4.8-.9s-4.1.2-5,.7c-.9.5-1.3,1.2-1.3,2s.3,1.3.8,1.7c.5.4,1.5.7,2.8.9l8.3,1.7c3.3.7,5.7,1.6,7.2,2.9,1.5,1.3,2.2,3.3,2.2,6s-.2,3.1-.7,4.3c-.5,1.2-1.2,2.2-2.3,3.2-1.1.9-2.6,1.6-4.6,2-2,.4-4.4.7-7.4.7Z"/>
      <path class="cls-3" d="M201.6,101.4v7.2h-10.9v23.9h-8.4v-23.9h-10.9v-7.2h30.1Z"/>
      <path class="cls-3" d="M212.6,101.4v31.1h-8.3v-31.1h8.3Z"/>
      <path class="cls-3" d="M242.4,125.3v7.2h-25.6v-31.1h8.3v23.9h17.2Z"/>
      <path class="cls-3" d="M253.4,101.4v31.1h-8.3v-31.1h8.3Z"/>
    </g>
    <polyline class="cls-1" points="152.9 141.3 244 141.3 87.6 151.2 270.1 146.2"/>
  </g>
  <polyline class="cls-1" points="152.1 268.8 260.1 268.8 74.6 281 291 274.9"/>
  <circle class="cls-2" cx="-67.1" cy="255.1" r="13.7"/>
  <image width="512" height="512" transform="translate(-76.3 246.8) scale(0)" xlink:href="C:\Users\Jasurbek\Downloads\ux-design.png"/>
</svg>