<?xml version="1.0" encoding="UTF-8"?>
<svg id="Layer_1" data-name="Layer 1" xmlns="http://www.w3.org/2000/svg" version="1.1" xmlns:xlink="http://www.w3.org/1999/xlink" viewBox="0 0 320 240">
  <defs>
    <style>
      .cls-1 {
        fill: none;
        stroke: #000;
        stroke-width: 2px;
      }

      .cls-1, .cls-2 {
        stroke-miterlimit: 10;
      }

      .cls-3 {
        fill: url(#linear-gradient);
        stroke-width: 0px;
      }

      .cls-2 {
        fill: #fbb03b;
        stroke: #fff;
      }
    </style>
    <linearGradient id="linear-gradient" x1="160.3" y1="81.5" x2="158.4" y2="169.1" gradientUnits="userSpaceOnUse">
      <stop offset="0" stop-color="#27ad2e"/>
      <stop offset=".8" stop-color="#056205"/>
    </linearGradient>
  </defs>
  <g>
    <g>
      <path class="cls-3" d="M46.9,121.3v-33h14v32.4c0,3.4.8,5.8,2.5,7.1,1.7,1.3,4.4,2,8,2s6.4-.7,8.1-2c1.7-1.3,2.5-3.7,2.5-7.1v-32.4h14v33c0,6.8-2,11.9-6.1,15.2-4,3.3-10.2,5-18.5,5s-14.5-1.6-18.5-4.9c-4-3.3-6.1-8.4-6.1-15.3Z"/>
      <path class="cls-3" d="M138,140.4l-10.9-17.2-10.8,17.2h-17.1l18.5-26.5-17.2-25.6h16.8l10,16.6,10.3-16.6h16.3l-17.1,25.7,18.5,26.4h-17.4Z"/>
      <path class="cls-3" d="M155.5,146.9l31.8-63.1h12.4l-31.6,63.1h-12.6Z"/>
      <path class="cls-3" d="M202.6,121.3v-33h14v32.4c0,3.4.8,5.8,2.5,7.1,1.7,1.3,4.4,2,8,2s6.4-.7,8.1-2c1.7-1.3,2.5-3.7,2.5-7.1v-32.4h14v33c0,6.8-2,11.9-6.1,15.2-4,3.3-10.2,5-18.5,5s-14.5-1.6-18.5-4.9c-4-3.3-6.1-8.4-6.1-15.3Z"/>
      <path class="cls-3" d="M272.3,88.4v52.1h-14v-52.1h14Z"/>
    </g>
    <polyline class="cls-1" points="180.2 155.2 252.5 155.2 128.4 163.3 273.3 159.3"/>
  </g>
  <circle class="cls-2" cx="-67.1" cy="256.1" r="13.7"/>
  <image width="512" height="512" transform="translate(-76.3 247.8) scale(0)" xlink:href="C:\Users\Jasurbek\Downloads\ux-design.png"/>
</svg>